<?xml version="1.0"?>
<svg xmlns="http://www.w3.org/2000/svg" id="Layer_1" data-name="Layer 1" viewBox="0 0 128 128" width="512" height="512"><title>TRANSLATOR</title><path d="M66.629,101.974a37.8,37.8,0,0,1-35.235-18.38l15.722,2.955a1.75,1.75,0,0,0,.647-3.44L28.42,79.474h-.007a1.769,1.769,0,0,0-.291-.026c-.018,0-.037,0-.056,0a1.742,1.742,0,0,0-.258.029c-.029,0-.057.006-.085.012a1.888,1.888,0,0,0-.214.067c-.04.015-.081.026-.12.044-.014.006-.029.008-.044.015-.049.024-.09.056-.136.083s-.068.033-.1.055c-.01.007-.017.015-.026.022a1.6,1.6,0,0,0-.147.124A1.458,1.458,0,0,0,26.82,80c-.038.041-.07.086-.1.13a1.5,1.5,0,0,0-.105.146c-.024.039-.043.08-.063.12a1.636,1.636,0,0,0-.088.19c-.013.034-.02.069-.031.1a1.592,1.592,0,0,0-.052.179l-3.635,19.343a1.75,1.75,0,0,0,1.4,2.043,1.8,1.8,0,0,0,.325.03,1.75,1.75,0,0,0,1.718-1.427l2.744-14.6A41.248,41.248,0,0,0,63.94,105.566q1.458,0,2.931-.1a1.75,1.75,0,0,0-.242-3.492Z"/><path d="M61.371,26.026a37.814,37.814,0,0,1,35.235,18.38L80.884,41.451a1.75,1.75,0,0,0-.647,3.44L99.58,48.526a1.667,1.667,0,0,0,.254.024c.023,0,.044.01.067.01a1.766,1.766,0,0,0,.474-.074c.036-.011.07-.025.106-.037.058-.021.117-.033.174-.06a1.888,1.888,0,0,0,.188-.115c.015-.009.033-.013.048-.023s.017-.015.026-.022a1.6,1.6,0,0,0,.147-.124A1.458,1.458,0,0,0,101.18,48c.038-.041.07-.086.1-.13a1.5,1.5,0,0,0,.1-.146c.024-.039.043-.08.063-.12a1.636,1.636,0,0,0,.088-.19c.013-.034.02-.069.031-.1a1.592,1.592,0,0,0,.052-.179l3.635-19.343a1.75,1.75,0,0,0-3.44-.646L99.08,41.716A41.323,41.323,0,0,0,61.129,22.534a1.75,1.75,0,0,0,.242,3.492Z"/><path d="M57,55.25V6.5a1.75,1.75,0,0,0-1.75-1.75H6.5A1.75,1.75,0,0,0,4.75,6.5V55.25A1.75,1.75,0,0,0,6.5,57H55.25A1.75,1.75,0,0,0,57,55.25ZM53.5,53.5H8.25V8.25H53.5Z"/><path d="M121.5,71H72.75A1.75,1.75,0,0,0,71,72.75V121.5a1.75,1.75,0,0,0,1.75,1.75H121.5a1.75,1.75,0,0,0,1.75-1.75V72.75A1.75,1.75,0,0,0,121.5,71Zm-1.75,48.75H74.5V74.5h45.25Z"/><path d="M91.813,102.093h10.623l1.664,3.968h4.416L99.332,84.078H94.885L85.7,106.061h4.448Zm5.312-12.7L101,98.637H93.252Z"/><path d="M43.107,46V42a19.023,19.023,0,0,1-11.013-4.219c4.291-3.448,7.427-8.182,8.12-13.037H43.7v-4H32.875V17.25h-4v3.494H18.05v4h18.1c-.718,3.8-3.362,7.529-6.9,10.237A12,12,0,0,1,26.4,27.454h-4a15.68,15.68,0,0,0,3.456,9.65,17.473,17.473,0,0,1-7.8,2.009v4A21.709,21.709,0,0,0,28.691,40.1C32.976,43.84,38.655,46,43.107,46Z"/></svg>
